<svg width="17" height="17" viewBox="0 0 17 17" fill="none" xmlns="http://www.w3.org/2000/svg">
<mask id="mask0_224_395" style="mask-type:alpha" maskUnits="userSpaceOnUse" x="0" y="0" width="17" height="17">
<rect width="17" height="17" fill="#D9D9D9"/>
</mask>
<g mask="url(#mask0_224_395)">
<path d="M3.52488 14.341V12.6055H13.4756V14.341H3.52488ZM3.55499 11.7555L2.65948 6.5376C2.64921 6.54941 2.6377 6.55366 2.62495 6.55035C2.61208 6.54705 2.59461 6.54539 2.57253 6.54539C2.23064 6.52532 1.94306 6.39033 1.70978 6.1404C1.4765 5.89048 1.35986 5.59457 1.35986 5.25269C1.35986 4.89356 1.48553 4.58833 1.73687 4.33699C1.98833 4.08565 2.29356 3.95998 2.65257 3.95998C3.0117 3.95998 3.31693 4.08565 3.56827 4.33699C3.81961 4.58833 3.94528 4.89356 3.94528 5.25269C3.94528 5.31561 3.94144 5.37405 3.93377 5.428C3.9261 5.48207 3.90786 5.53785 3.87905 5.59534L5.83016 6.50998L7.64331 3.59572C7.50318 3.48132 7.39551 3.34255 7.32031 3.17939C7.24511 3.01636 7.20751 2.84075 7.20751 2.65257C7.20751 2.29356 7.33318 1.98833 7.58452 1.73687C7.83586 1.48553 8.14109 1.35986 8.50022 1.35986C8.85934 1.35986 9.16458 1.48553 9.41592 1.73687C9.66726 1.98833 9.79293 2.29356 9.79293 2.65257C9.79293 2.84394 9.75533 3.02037 9.68012 3.18187C9.60492 3.34337 9.49726 3.48132 9.35712 3.59572L11.1703 6.50998L13.1214 5.59534C13.0926 5.53785 13.0743 5.48207 13.0667 5.428C13.059 5.37405 13.0552 5.31561 13.0552 5.25269C13.0552 4.89356 13.1808 4.58833 13.4322 4.33699C13.6835 4.08565 13.9887 3.95998 14.3479 3.95998C14.7069 3.95998 15.0121 4.08565 15.2636 4.33699C15.5149 4.58833 15.6406 4.89356 15.6406 5.25269C15.6406 5.59457 15.5239 5.89048 15.2907 6.1404C15.0574 6.39033 14.7698 6.52532 14.4279 6.54539C14.4058 6.54539 14.3884 6.54705 14.3755 6.55035C14.3627 6.55366 14.3512 6.54941 14.341 6.5376L13.4454 11.7555H3.55499ZM5.00778 10.0201H11.9927L12.373 7.8312L10.542 8.69961L8.50022 5.45368L6.44835 8.69961L4.61749 7.8312L5.00778 10.0201Z" fill="#777777"/>
</g>
</svg>
